<svg  width="16" height="16" viewBox="0 0 16 16">
    <g fill="none" fill-rule="evenodd">
        <path d="M-6-6h28v28H-6z"/>
        <path fill="#FFF" fill-rule="nonzero" d="M6.924 11.813a.885.885 0 0 0 1.254 0l3.19-3.19a.885.885 0 0 0 0-1.254l-3.19-3.191A.885.885 0 1 0 6.924 5.43l1.672 1.68H.889C.4 7.111 0 7.511 0 8s.4.889.889.889h7.707L6.924 10.56a.893.893 0 0 0 0 1.253zM14.222 0H1.778C.79 0 0 .8 0 1.778v2.666c0 .49.4.89.889.89s.889-.4.889-.89V2.667c0-.49.4-.89.889-.89h10.666c.49 0 .89.4.89.89v10.666c0 .49-.4.89-.89.89H2.667a.892.892 0 0 1-.89-.89v-1.777c0-.49-.4-.89-.888-.89-.489 0-.889.4-.889.89v2.666C0 15.2.8 16 1.778 16h12.444C15.2 16 16 15.2 16 14.222V1.778C16 .8 15.2 0 14.222 0z"/>
    </g>
</svg>
